# xmcd CD database file
#
# Track frame offsets:
#	150
#	19725
#	41731
#	59721
#	80906
#	101570
#	123937
#	145704
#	164397
#	186462
#	209369
#	233062
#	253816
#
# Disc length: 3618 seconds
#
# Revision: 5
# Processed by: cddbd v1.5.1PL2 Copyright (c) Steve Scherf et al.
# Submitted via: CDex 1.51
#
DISCID=bf0e200d
DTITLE=ポルノグラフティ - BEST BLUE'S
DYEAR=2004
DGENRE=JPop
TTITLE0=アポロ
TTITLE1=サボテン
TTITLE2=オレ、天使
TTITLE3=アゲハ蝶
TTITLE4=ラビュー・ラビュー
TTITLE5=音のない森
TTITLE6=渦
TTITLE7=ヒトリノ夜
TTITLE8=ハート
TTITLE9=パレット
TTITLE10=カルマの坂
TTITLE11=メリッサ
TTITLE12=まほろば○△
EXTD=YEAR: 2004
EXTT0=
EXTT1=
EXTT2=
EXTT3=
EXTT4=
EXTT5=
EXTT6=
EXTT7=
EXTT8=
EXTT9=
EXTT10=
EXTT11=
EXTT12=
PLAYORDER=
